NFO: 
http://www.imdb.com/title/tt0458259/

General
Unique ID : 24460685600861369891302600324493300713 (0x1266F4E95DE38821419D501D4D0353E9)
Complete name : /ram/Dirty.Jobs.S09E10.Onion.Processor.720p.HDTV.x264-MOMENTUM/dirty.jobs.s09e10.720p.hdtv.x264-momentum.mkv
Format : Matroska
Format version : Version 2
File size : 1.30 GiB
Duration : 42mn 31s
Overall bit rate : 4 363 Kbps
Encoded date : UTC 2012-02-25 10:30:37
Writing application : mkvmerge v2.7.0 (\'Do It Again' built on Jul 2 2010 15:54:17
Writing library : libebml v0.7.7 + libmatroska v0.8.1

Video
ID : 1
Format : AVC
Format/Info : Advanced Video Codec
Format profile : High@L4.1
Format settings, CABAC : Yes
Format settings, ReFrames : 5 frames
Codec ID : V_MPEG4/ISO/AVC
Duration : 42mn 31s
Bit rate : 3 892 Kbps
Width : 1 280 pixels
Height : 716 pixels
Display aspect ratio : 16:9
Frame rate : 29.970 fps
Color space : YUV
Chroma subsampling : 4:2:0
Bit depth : 8 bits
Scan type : Progressive
Bits/(Pixel*Frame) : 0.142
Stream size : 1.16 GiB (89%)
Writing library : x264 core 120 r2164 da19765
Encoding settings : cabac=1 / ref=5 / deblock=1:0:0 / analyse=0x3:0x113 / me=umh / subme=8 / psy=1 / psy_rd=1.00:0.00 / mixed_ref=1 / me_range=16 / chroma_me=1 / trellis=1 / 8x8dct=1 / cqm=0 / deadzone=21,11 / fast_pskip=1 / chroma_qp_offset=-2 / threads=16 / sliced_threads=0 / nr=0 / decimate=1 / interlaced=0 / bluray_compat=0 / constrained_intra=0 / bframes=3 / b_pyramid=2 / b_adapt=2 / b_bias=0 / direct=3 / weightb=1 / open_gop=0 / weightp=2 / keyint=300 / keyint_min=30 / scenecut=40 / intra_refresh=0 / rc_lookahead=50 / rc=crf / mbtree=1 / crf=21.0 / qcomp=0.60 / qpmin=0 / qpmax=69 / qpstep=4 / ip_ratio=1.40 / aq=1:1.00
Language : English
Matrix coefficients : BT.709-5, BT.1361, IEC 61966-2-4 709, SMPTE RP177

Audio
ID : 2
Format : AC-3
Format/Info : Audio Coding 3
Mode extension : CM (complete main)
Codec ID : A_AC3
Duration : 42mn 31s
Bit rate mode : Constant
Bit rate : 384 Kbps
Channel(s) : 6 channels
Channel positions : Front: L C R, Side: L R, LFE
Sampling rate : 48.0 KHz
Bit depth : 16 bits
Compression mode : Lossy
Stream size : 117 MiB (9%)